<svg width="20" height="20" viewBox="0 0 20 20" fill="none" xmlns="http://www.w3.org/2000/svg">
<path d="M15.4246 16.7051C15.636 16.9164 15.7547 17.2031 15.7547 17.502C15.7547 17.8008 15.636 18.0875 15.4246 18.2988C15.2133 18.5102 14.9266 18.6289 14.6278 18.6289C14.3289 18.6289 14.0422 18.5102 13.8309 18.2988L6.33089 10.7988C6.22601 10.6943 6.14279 10.5701 6.08601 10.4334C6.02923 10.2966 6 10.15 6 10.002C6 9.85389 6.02923 9.70728 6.08601 9.57053C6.14279 9.43378 6.22601 9.30959 6.33089 9.20508L13.8309 1.70508C14.0422 1.49373 14.3289 1.375 14.6278 1.375C14.9266 1.375 15.2133 1.49373 15.4246 1.70508C15.636 1.91642 15.7547 2.20307 15.7547 2.50195C15.7547 2.80084 15.636 3.08748 15.4246 3.29883L8.72245 10.001L15.4246 16.7051Z" fill="#808894"/>
</svg>
