<svg width="89" height="24" viewBox="0 0 89 24" fill="none" xmlns="http://www.w3.org/2000/svg">
<path d="M9.93906 0C4.44969 0 0 4.51277 0 10.08V22.8552C0 22.8947 0 22.936 0.00555979 22.9736C0.105636 24.1352 1.69388 24.3851 2.19982 23.3382L4.6276 18.6431L4.58868 18.5717C4.60721 18.583 4.62575 18.5943 4.64428 18.6074L6.47345 14.7224C7.78371 11.9407 7.12765 8.85263 4.38482 7.52192L4.79254 6.65733C7.53537 7.98616 10.8231 6.80769 12.1333 4.02597L12.9858 4.43947C11.6756 7.22119 12.8376 10.5555 15.5804 11.8843L15.1727 12.7489C12.4298 11.4201 9.64809 12.8429 8.33784 15.6265L6.49569 19.5359C7.56873 19.9382 8.72702 20.1599 9.9372 20.1599C15.4266 20.1599 19.8763 15.6472 19.8763 10.08C19.8763 4.51277 15.4284 0 9.93906 0Z" fill="currentColor"/>
<path d="M29.8781 1.83789H36.2871C39.8032 1.83789 42.669 4.51367 42.669 8.07967C42.669 11.6457 40.2008 13.8601 37.8185 14.3214L42.2142 21.9729H39.2085L35.0959 14.5812H32.6564V21.9729H29.8765V1.83789H29.8781ZM36.2888 12.0489C38.4436 12.0489 39.8908 10.2651 39.8908 8.07967C39.8908 5.89428 38.4453 4.36843 36.2888 4.36843H32.658V12.0489H36.2888Z" fill="currentColor"/>
<path d="M51.22 7.36133C54.8794 7.36133 58.3955 10.0644 58.5371 14.5241C58.5371 15.0128 58.5084 15.4451 58.4528 15.8193H46.9946C47.222 17.9483 48.9237 19.4724 51.22 19.4724C52.7801 19.4724 53.8854 18.8402 54.6233 18.0337L57.9423 18.0627C56.7225 20.5369 54.1701 22.2046 51.306 22.2046C47.222 22.2046 44.0176 18.8966 44.0176 14.8128C44.0176 10.7291 47.1378 7.36304 51.2217 7.36304L51.22 7.36133ZM55.56 13.516C55.0496 11.5595 53.3479 10.0935 51.306 10.0935C49.0938 10.0935 47.5051 11.5595 46.9946 13.516H55.56Z" fill="currentColor"/>
<path d="M63.0627 10.3676H60.9365V7.63541H63.12C63.4317 4.09675 65.445 1.9404 68.9056 1.79688V4.52904C67.2612 4.70162 66.0128 5.73707 65.8999 7.63541H68.9056V10.3676H65.8426V22.0173H63.0627V10.3676Z" fill="currentColor"/>
<path d="M69.8581 19.8759C69.6492 20.831 70.2085 21.7229 71.1503 21.9348C72.0921 22.1467 72.9429 21.5726 73.1535 20.6191C73.3624 19.664 72.8031 18.772 71.8899 18.567C70.9768 18.362 70.0687 18.9224 69.8598 19.8776L69.8581 19.8759ZM70.9566 16.3235L73.6691 16.9352L76.8449 2.44569L74.1324 1.83398L70.9566 16.3235Z" fill="currentColor"/>
<path d="M82.9968 10.2222V15.0543C82.9968 17.7865 84.0464 19.0526 86.0598 19.2252V21.9573C82.6565 21.8138 80.2456 19.7139 80.2169 15.0834V10.2222H78.1177V7.49002H80.2169V2.3418H82.9968V7.49002H86.0598V10.2222H82.9968Z" fill="currentColor"/>
</svg>
