<svg width="164" height="148" viewBox="0 0 164 148" fill="none" xmlns="http://www.w3.org/2000/svg">
<g clip-path="url(#clip0_11720_4058)">
<path d="M82 88.3611C111.271 88.3611 135 69.5221 135 46.2831C135 23.044 111.271 4.20508 82 4.20508C52.7289 4.20508 29 23.044 29 46.2831C29 69.5221 52.7289 88.3611 82 88.3611Z" fill="#FFD252"/>
<path d="M70.4648 5.24748C72.0597 5.03585 74.1987 4.73351 76.7308 4.34047C81.795 3.55439 84.3271 3.16135 87.3429 2.4962C93.7601 1.09033 96.9648 0.379829 97.0707 0.349596C97.5393 0.183309 99.1719 -0.398693 101.235 -0.156822C102.218 -0.043445 103.465 0.122841 104.41 1.13568C105.627 2.42817 105.468 4.16662 105.43 4.53699C105.181 6.69871 103.442 7.82492 103.193 7.98365C104.38 8.55054 105.566 9.12498 106.761 9.69187C94.6595 8.21041 82.566 6.7365 70.4648 5.25504V5.24748Z" fill="#FFD252"/>
<path d="M82.0013 128.76C100.532 128.76 115.553 115.034 115.553 98.1025C115.553 81.171 100.532 67.4453 82.0013 67.4453C63.471 67.4453 48.4492 81.171 48.4492 98.1025C48.4492 115.034 63.471 128.76 82.0013 128.76Z" fill="#FFD252"/>
<path d="M58.6662 23.4414C48.2431 23.4414 39.7852 31.8086 39.7852 42.1259C39.7852 52.4433 48.2355 60.8105 58.6662 60.8105C69.0969 60.8105 77.5473 52.4433 77.5473 42.1259C77.5473 31.8086 69.0969 23.4414 58.6662 23.4414ZM58.6662 57.3941C50.1403 57.3941 43.2318 50.5536 43.2318 42.1184C43.2318 33.6831 50.1403 26.8427 58.6662 26.8427C67.1922 26.8427 74.1006 33.6831 74.1006 42.1184C74.1006 50.5536 67.1922 57.3941 58.6662 57.3941Z" fill="#EF6135"/>
<path d="M105.332 23.4414C94.9091 23.4414 86.4512 31.8086 86.4512 42.1259C86.4512 52.4433 94.9015 60.8105 105.332 60.8105C115.763 60.8105 124.213 52.4433 124.213 42.1259C124.213 31.8086 115.763 23.4414 105.332 23.4414ZM105.332 57.3941C96.8063 57.3941 89.8978 50.5536 89.8978 42.1184C89.8978 33.6831 96.8063 26.8427 105.332 26.8427C113.858 26.8427 120.767 33.6831 120.767 42.1184C120.767 50.5536 113.858 57.3941 105.332 57.3941Z" fill="#EF6135"/>
<path d="M87.2295 44.0007C86.1033 43.6606 84.3346 43.2448 82.12 43.2448C79.8902 43.2448 78.1064 43.6606 76.9727 44.0007V40.2441C78.0989 39.904 79.8675 39.4883 82.0671 39.4883C84.3044 39.4883 86.0882 39.904 87.2219 40.2441V44.0007H87.2295Z" fill="#EF6135"/>
<path d="M62.3614 42.027L65.0371 43.1381C66.4883 43.7428 66.4883 45.7987 65.0371 46.4034L62.3614 47.5145C61.9305 47.6959 61.5829 48.036 61.409 48.4669L60.2979 51.1425C59.6932 52.5938 57.6373 52.5938 57.0327 51.1425L55.9216 48.4669C55.7402 48.036 55.4 47.6883 54.9692 47.5145L52.2935 46.4034C50.8423 45.7987 50.8423 43.7428 52.2935 43.1381L54.9692 42.027C55.4 41.8456 55.7477 41.5055 55.9216 41.0747L57.0327 38.399C57.6373 36.9477 59.6932 36.9477 60.2979 38.399L61.409 41.0747C61.5904 41.5055 61.9305 41.8532 62.3614 42.027Z" fill="#3C2106"/>
<path d="M109.232 42.027L111.908 43.1381C113.359 43.7428 113.359 45.7987 111.908 46.4034L109.232 47.5145C108.802 47.6959 108.454 48.036 108.28 48.4669L107.169 51.1425C106.564 52.5938 104.508 52.5938 103.904 51.1425L102.793 48.4669C102.611 48.036 102.271 47.6883 101.84 47.5145L99.1646 46.4034C97.7134 45.7987 97.7134 43.7428 99.1646 43.1381L101.84 42.027C102.271 41.8456 102.619 41.5055 102.793 41.0747L103.904 38.399C104.508 36.9477 106.564 36.9477 107.169 38.399L108.28 41.0747C108.462 41.5055 108.802 41.8532 109.232 42.027Z" fill="#3C2106"/>
<path d="M82.1034 70.3272C86.0525 70.3272 89.2538 66.2495 89.2538 61.2193C89.2538 56.1891 86.0525 52.1113 82.1034 52.1113C78.1544 52.1113 74.9531 56.1891 74.9531 61.2193C74.9531 66.2495 78.1544 70.3272 82.1034 70.3272Z" fill="#FF9124"/>
<path d="M82.1058 63.177C84.2514 63.177 85.9908 62.3005 85.9908 61.2194C85.9908 60.1382 84.2514 59.2617 82.1058 59.2617C79.9601 59.2617 78.2207 60.1382 78.2207 61.2194C78.2207 62.3005 79.9601 63.177 82.1058 63.177Z" fill="#B5631A"/>
<path d="M70.3522 98.2329C70.3522 105.935 63.8519 112.178 55.8324 112.178C47.8129 112.178 41.9399 105.527 41.3126 98.2329C40.6625 90.6971 45.8628 83.5619 53.58 81.8008C54.0561 82.345 54.8347 83.2293 55.8324 84.2875C64.8043 93.8036 70.3522 94.4083 70.3522 98.2329Z" fill="#FFD252"/>
<path d="M93.3242 98.2329C93.3242 105.935 99.8245 112.178 107.844 112.178C115.864 112.178 121.737 105.527 122.364 98.2329C123.014 90.6971 117.814 83.5619 110.096 81.8008C109.62 82.345 108.842 83.2293 107.844 84.2875C98.8721 93.8036 93.3242 94.4083 93.3242 98.2329Z" fill="#FFD252"/>
<path opacity="0.3" d="M59.6721 90.168C59.3168 90.886 58.954 91.793 58.7121 92.8663C58.115 95.5647 58.6139 97.8474 58.9994 99.1021" stroke="#B5631A" stroke-width="1.51169" stroke-miterlimit="10" stroke-linecap="round"/>
<path opacity="0.3" d="M103.043 90.168C103.398 90.886 103.761 91.793 104.003 92.8663C104.6 95.5647 104.101 97.8474 103.716 99.1021" stroke="#B5631A" stroke-width="1.51169" stroke-miterlimit="10" stroke-linecap="round"/>
<path d="M107.184 128.783H57.2674C55.5289 128.783 54.0399 127.702 53.7225 126.213L47.5472 96.6746C47.1466 94.7548 48.8397 92.9785 51.0921 92.9785H113.359C115.604 92.9785 117.304 94.7472 116.904 96.6746L110.728 126.213C110.419 127.702 108.93 128.783 107.184 128.783Z" fill="#CAD1DB"/>
<path d="M83.4351 105.141C79.8675 105.141 76.9727 107.295 76.9727 109.955V116.063C76.9727 116.063 76.9727 116.1 76.9727 116.123C77.0407 116.675 78.0686 116.796 78.4012 116.297L79.9809 114.052L79.9583 114.014C79.9734 114.014 79.9809 114.022 79.996 114.029L81.1827 112.17C82.0368 110.84 81.606 109.366 79.8222 108.731L80.0867 108.315C81.8705 108.95 84.0096 108.391 84.8561 107.06L85.4079 107.257C84.5538 108.587 85.3096 110.182 87.0934 110.817L86.8289 111.233C85.0451 110.598 83.2386 111.278 82.3845 112.608L81.1903 114.475C81.8857 114.664 82.6415 114.77 83.4276 114.77C86.9952 114.77 89.8901 112.616 89.8901 109.955C89.8901 107.295 86.9952 105.141 83.4276 105.141H83.4351Z" fill="#9EA9B7"/>
<path d="M107.857 128.783H56.2323C55.0426 128.783 54.0781 129.748 54.0781 130.937V131.308C54.0781 132.497 55.0426 133.462 56.2323 133.462H107.857C109.046 133.462 110.011 132.497 110.011 131.308V130.937C110.011 129.748 109.046 128.783 107.857 128.783Z" fill="#9EA9B7"/>
<path d="M10.2132 50.6201L16.9642 51.2616C17.3173 51.2969 17.6616 51.0477 17.7846 50.6639L18.2507 49.206C18.3717 48.838 18.2415 48.4445 17.9562 48.2567L12.1784 44.579C11.7768 44.3184 11.2335 44.5616 11.0718 45.0725L9.63026 49.5825C9.47051 50.0776 9.75151 50.5773 10.2223 50.6245L10.2132 50.6201Z" fill="#EE84A4"/>
<path d="M12.7166 40.144L19.0967 46.45C19.4317 46.7794 19.9028 46.8491 20.2292 46.6137L21.4653 45.7114C21.7782 45.4806 21.8641 45.0341 21.6725 44.6167L17.8674 36.4322C17.5989 35.86 16.9375 35.6146 16.5015 35.9263C15.4576 36.6856 13.7029 37.9663 12.6769 38.7118C12.2544 39.0188 12.2761 39.7077 12.7142 40.1373L12.7166 40.144Z" fill="#87DC7B"/>
<path d="M148.138 79.0721L141.481 77.7777C141.132 77.7117 140.873 77.3752 140.863 76.9723L140.828 75.4421C140.816 75.0549 141.053 74.7143 141.379 74.6149L147.962 72.7218C148.421 72.5855 148.873 72.9724 148.883 73.5083L148.99 78.2418C149.003 78.7619 148.593 79.1617 148.128 79.0737L148.138 79.0721Z" fill="#EE84A4"/>
<path d="M148.7 68.3157L140.796 72.5593C140.382 72.7805 139.91 72.7141 139.664 72.396L138.733 71.1808C138.499 70.871 138.542 70.4185 138.844 70.0723L144.809 63.2985C145.229 62.8256 145.932 62.7773 146.262 63.1996C147.049 64.2231 148.37 65.948 149.143 66.9532C149.461 67.3672 149.246 68.0218 148.704 68.3099L148.7 68.3157Z" fill="#87DC7B"/>
</g>
<defs>
<clipPath id="clip0_11720_4058">
<rect width="164" height="148" fill="white"/>
</clipPath>
</defs>
</svg>
