<svg width="120" height="105" viewBox="0 0 120 105" fill="none" xmlns="http://www.w3.org/2000/svg">
<g clip-path="url(#clip0_1683_2316)">
<path d="M58.7383 84.055C86.4109 84.055 108.844 66.2448 108.844 44.2748C108.844 22.3048 86.4109 4.49463 58.7383 4.49463C31.0657 4.49463 8.63257 22.3048 8.63257 44.2748C8.63257 66.2448 31.0657 84.055 58.7383 84.055Z" fill="#FFD446"/>
<path d="M47.8337 5.16636C49.3415 4.96628 51.3637 4.68045 53.7575 4.30887C58.5452 3.56572 60.939 3.19414 63.7901 2.56532C69.8568 1.23621 72.8866 0.564518 72.9866 0.535935C73.4297 0.37873 74.9732 -0.17149 76.9239 0.0571725C77.8529 0.164358 79.0319 0.321564 79.9251 1.27909C81.0756 2.50101 80.9255 4.14452 80.8898 4.49466C80.654 6.53833 79.0105 7.60304 78.7747 7.7531C79.8965 8.28903 81.0184 8.83211 82.1474 9.36804C70.7072 7.96748 59.274 6.57406 47.8337 5.1735V5.16636Z" fill="#FFD446"/>
<path d="M77.7599 78.024C85.9632 78.024 91.6011 76.0875 95.2383 74.3082C99.147 72.4003 102.005 70.0565 104.563 71.2427C107.608 72.6576 107.822 77.9382 107.843 78.5313C108.022 83.0045 105.65 86.3273 103.978 88.6497C100.826 93.0371 97.1462 95.2809 91.5368 98.6108C87.6996 100.897 84.1767 102.577 81.2756 103.806C81.2756 103.806 65.4764 77.0736 77.767 78.0168L77.7599 78.024Z" fill="#FFD446"/>
<path d="M30.4838 99.211C27.8685 102.927 19.1722 102.427 14.4774 97.8891C9.7827 93.3515 8.98953 84.6695 12.6124 81.9327C15.9923 79.3817 22.5521 82.4972 26.0678 85.8986C29.5835 89.2999 32.9205 95.7453 30.4838 99.211Z" fill="#FFD446"/>
<path d="M58.7384 122.249C76.2567 122.249 90.4582 109.273 90.4582 93.2659C90.4582 77.259 76.2567 64.2828 58.7384 64.2828C41.22 64.2828 27.0186 77.259 27.0186 93.2659C27.0186 109.273 41.22 122.249 58.7384 122.249Z" fill="#FFD446"/>
<path d="M33.7067 22.6805C23.8527 22.6805 15.8567 30.5908 15.8567 40.3447C15.8567 50.0986 23.8456 58.0089 33.7067 58.0089C43.5678 58.0089 51.5567 50.0986 51.5567 40.3447C51.5567 30.5908 43.5678 22.6805 33.7067 22.6805ZM33.7067 54.7791C25.6463 54.7791 19.1151 48.3122 19.1151 40.3376C19.1151 32.363 25.6463 25.8961 33.7067 25.8961C41.767 25.8961 48.2982 32.363 48.2982 40.3376C48.2982 48.3122 41.767 54.7791 33.7067 54.7791Z" fill="#EF6135"/>
<path d="M77.8246 22.6805C67.9707 22.6805 59.9746 30.5908 59.9746 40.3447C59.9746 50.0986 67.9635 58.0089 77.8246 58.0089C87.6857 58.0089 95.6746 50.0986 95.6746 40.3447C95.6746 30.5908 87.6857 22.6805 77.8246 22.6805ZM77.8246 54.7791C69.7642 54.7791 63.2331 48.3122 63.2331 40.3376C63.2331 32.363 69.7642 25.8961 77.8246 25.8961C85.885 25.8961 92.4161 32.363 92.4161 40.3376C92.4161 48.3122 85.885 54.7791 77.8246 54.7791Z" fill="#EF6135"/>
<path d="M60.7106 42.1168C59.6459 41.7953 57.9738 41.4022 55.8801 41.4022C53.7722 41.4022 52.0858 41.7953 51.0139 42.1168V38.5654C52.0786 38.2438 53.7507 37.8508 55.8301 37.8508C57.9453 37.8508 59.6316 38.2438 60.7035 38.5654V42.1168H60.7106Z" fill="#EF6135"/>
<path d="M37.2009 37.3935L39.7305 38.4439C41.1024 39.0156 41.1024 40.9592 39.7305 41.5309L37.2009 42.5813C36.7936 42.7528 36.4649 43.0743 36.3005 43.4816L35.2501 46.0112C34.6784 47.3832 32.7348 47.3832 32.1632 46.0112L31.1127 43.4816C30.9412 43.0743 30.6197 42.7456 30.2124 42.5813L27.6828 41.5309C26.3108 40.9592 26.3108 39.0156 27.6828 38.4439L30.2124 37.3935C30.6197 37.222 30.9484 36.9004 31.1127 36.4931L32.1632 33.9636C32.7348 32.5916 34.6784 32.5916 35.2501 33.9636L36.3005 36.4931C36.472 36.9004 36.7936 37.2291 37.2009 37.3935Z" fill="#3C2106"/>
<path d="M81.5114 37.3935L84.041 38.4439C85.413 39.0156 85.413 40.9592 84.041 41.5309L81.5114 42.5813C81.1041 42.7528 80.7754 43.0743 80.6111 43.4816L79.5606 46.0112C78.989 47.3832 77.0454 47.3832 76.4737 46.0112L75.4233 43.4816C75.2518 43.0743 74.9302 42.7456 74.5229 42.5813L71.9933 41.5309C70.6214 40.9592 70.6214 39.0156 71.9933 38.4439L74.5229 37.3935C74.9302 37.222 75.2589 36.9004 75.4233 36.4931L76.4737 33.9636C77.0454 32.5916 78.989 32.5916 79.5606 33.9636L80.6111 36.4931C80.7826 36.9004 81.1041 37.2291 81.5114 37.3935Z" fill="#3C2106"/>
<path d="M55.8586 67.0053C61.4784 67.0053 66.0341 63.1503 66.0341 58.3948C66.0341 53.6393 61.4784 49.7842 55.8586 49.7842C50.2388 49.7842 45.6831 53.6393 45.6831 58.3948C45.6831 63.1503 50.2388 67.0053 55.8586 67.0053Z" fill="#FF9124"/>
<path d="M55.8582 60.2455C58.9127 60.2455 61.389 59.4169 61.389 58.3948C61.389 57.3727 58.9127 56.5441 55.8582 56.5441C52.8036 56.5441 50.3274 57.3727 50.3274 58.3948C50.3274 59.4169 52.8036 60.2455 55.8582 60.2455Z" fill="#B5631A"/>
<path d="M99.5186 78.5528C100.397 78.4385 101.598 78.1884 102.92 77.5953C104.635 76.8236 105.828 75.8089 106.536 75.0872" stroke="#EAB847" stroke-width="1.42914" stroke-miterlimit="10" stroke-linecap="round"/>
<path d="M102.32 84.5053C103.091 84.1337 104.177 83.4977 105.249 82.4473C106.093 81.6184 106.657 80.7895 107.036 80.1321" stroke="#EAB847" stroke-width="1.42914" stroke-miterlimit="10" stroke-linecap="round"/>
<path d="M21.723 83.6906C20.9513 84.0621 19.8651 84.6981 18.7933 85.7485C17.9501 86.5774 17.3856 87.4063 17.0068 88.0637" stroke="#EAB847" stroke-width="1.42914" stroke-miterlimit="10" stroke-linecap="round"/>
<path d="M26.725 87.6708C25.9532 88.0424 24.8671 88.6783 23.7952 89.7287C22.952 90.5576 22.3875 91.3865 22.0088 92.0439" stroke="#EAB847" stroke-width="1.42914" stroke-miterlimit="10" stroke-linecap="round"/>
<path d="M117.233 56.6798L110.795 61.6175C110.709 63.6612 111.888 65.5477 113.739 66.3551C115.654 67.1912 117.919 66.7124 119.348 65.1618C118.998 62.4822 118.641 59.8025 118.291 57.1157C118.226 56.6084 117.633 56.3654 117.233 56.6727V56.6798Z" fill="#F4D2B5"/>
<path d="M118.569 59.2524C118.477 58.5449 118.384 57.8304 118.291 57.1229C118.226 56.6156 117.633 56.3726 117.233 56.6799L115.654 57.8875C116.39 58.795 117.462 59.2023 118.569 59.2524Z" fill="#3C2106"/>
<path d="M106.9 95.1881C106.9 95.1881 103.17 95.967 103.149 95.9527C102.156 95.5382 101.155 95.1238 100.162 94.7165C100.148 94.7165 98.3612 91.651 98.3469 91.6438C102.499 81.6327 106.643 71.6287 110.795 61.6176C110.802 61.6176 112.724 64.7402 112.731 64.7402C113.682 65.1332 114.632 65.5263 115.582 65.9264C115.597 65.9264 119.334 65.1618 119.348 65.169C115.197 75.1801 111.052 85.1841 106.9 95.1953V95.1881Z" fill="#558AFF"/>
<path d="M115.59 65.9294L112.725 64.7416L100.275 94.7687L103.14 95.9565L115.59 65.9294Z" fill="#3972D8"/>
<path d="M0.393535 79.7604L6.55314 82.5973C6.8747 82.7473 7.282 82.6258 7.52496 82.3043L8.44675 81.0824C8.68256 80.7751 8.68971 80.3606 8.48248 80.0891L4.24507 74.7084C3.9521 74.3297 3.35901 74.3797 3.03745 74.8084L0.18631 78.5885C-0.128102 79.003 -0.0280619 79.5675 0.400681 79.7676L0.393535 79.7604Z" fill="#EE84A4"/>
<path d="M6.21706 70.6997L10.1543 78.7601C10.3616 79.1817 10.7832 79.4032 11.169 79.2889L12.6339 78.8458C13.0055 78.7315 13.2341 78.3385 13.1913 77.8812L12.3052 68.899C12.2409 68.2702 11.6978 67.82 11.1833 67.9701C9.94712 68.3416 7.86772 68.9705 6.65295 69.3349C6.15275 69.4849 5.94552 70.1424 6.21706 70.6926V70.6997Z" fill="#87DC7B"/>
</g>
<defs>
<clipPath id="clip0_1683_2316">
<rect width="119.348" height="134.154" fill="white"/>
</clipPath>
</defs>
</svg>
