<svg width="26" height="26" viewBox="0 0 26 26" fill="none" xmlns="http://www.w3.org/2000/svg">
<g clip-path="url(#clip0_11706_17307)">
<path d="M22.7478 24.0469C22.415 24.0469 22.0829 23.9201 21.8287 23.666L15.9911 17.8283C15.4834 17.3207 15.4834 16.4978 15.9911 15.9901C16.4987 15.4825 17.3216 15.4825 17.8293 15.9901L23.6669 21.8278C24.1746 22.3354 24.1746 23.1583 23.6669 23.666C23.4128 23.9201 23.0806 24.0469 22.7478 24.0469Z" fill="#4E5968"/>
<path d="M19.2571 11.2548C19.2571 6.84125 15.6665 3.25 11.2523 3.25C9.04558 3.25 7.04423 4.14765 5.59473 5.59715L16.9093 16.9123C18.3588 15.4628 19.2571 13.4615 19.2571 11.2548Z" fill="#E5E9EE"/>
<path d="M16.9123 16.9129L5.59715 5.59766C4.14765 7.04716 3.25 9.04851 3.25 11.2553C3.25 15.6688 6.84125 19.26 11.2548 19.26C13.4615 19.26 15.4628 18.3624 16.9123 16.9129Z" fill="#F0F3F6"/>
<path d="M11.2555 20.2323C6.30442 20.2323 2.27637 16.2042 2.27637 11.2532C2.27637 6.30214 6.30442 2.27344 11.2555 2.27344C16.2065 2.27344 20.2352 6.30149 20.2352 11.2532C20.2352 16.2049 16.2072 20.2323 11.2555 20.2323ZM11.2555 4.22344C7.37952 4.22344 4.22637 7.37724 4.22637 11.2532C4.22637 15.1291 7.38017 18.2823 11.2555 18.2823C15.1308 18.2823 18.2852 15.1285 18.2852 11.2532C18.2852 7.37789 15.1314 4.22344 11.2555 4.22344Z" fill="#A3ADB7"/>
</g>
<defs>
<clipPath id="clip0_11706_17307">
<rect width="26" height="26" fill="white"/>
</clipPath>
</defs>
</svg>
