<svg width="24" height="24" viewBox="0 0 24 24" fill="none" xmlns="http://www.w3.org/2000/svg">
<g clip-path="url(#clip0_11706_13649)">
<path d="M20.2352 2H3.76485C2.79015 2 2 2.79015 2 3.76485V20.2352C2 21.2099 2.79015 22 3.76485 22H20.2352C21.2099 22 22 21.2099 22 20.2352V3.76485C22 2.79015 21.2099 2 20.2352 2Z" fill="#8595AA"/>
<path d="M13.2935 5H9.70655C9.31629 5 9 4.77618 9 4.5C9 4.22383 9.31629 4 9.70655 4H13.2935C13.6837 4 14 4.22383 14 4.5C14 4.77618 13.6837 5 13.2935 5Z" fill="#495B73"/>
<path d="M22 11H2V12H22V11Z" fill="#65778E"/>
<path d="M13.2935 15H9.70655C9.31629 15 9 14.7762 9 14.5C9 14.2238 9.31629 14 9.70655 14H13.2935C13.6837 14 14 14.2238 14 14.5C14 14.7762 13.6837 15 13.2935 15Z" fill="#495B73"/>
</g>
<defs>
<clipPath id="clip0_11706_13649">
<rect width="24" height="24" fill="white"/>
</clipPath>
</defs>
</svg>
