<svg width="16" height="16" viewBox="0 0 16 16" fill="none" xmlns="http://www.w3.org/2000/svg">
<path d="M13.3538 5.14625L9.85375 1.64625C9.80728 1.59983 9.75212 1.56303 9.69143 1.53793C9.63073 1.51284 9.56568 1.49995 9.5 1.5H3.5C3.23478 1.5 2.98043 1.60536 2.79289 1.79289C2.60536 1.98043 2.5 2.23478 2.5 2.5V13.5C2.5 13.7652 2.60536 14.0196 2.79289 14.2071C2.98043 14.3946 3.23478 14.5 3.5 14.5H12.5C12.7652 14.5 13.0196 14.3946 13.2071 14.2071C13.3946 14.0196 13.5 13.7652 13.5 13.5V5.5C13.5001 5.43432 13.4872 5.36927 13.4621 5.30858C13.437 5.24788 13.4002 5.19272 13.3538 5.14625ZM9.5 5.5V2.75L12.25 5.5H9.5Z" fill="#808894"/>
</svg>
