<svg width="18" height="18" viewBox="0 0 18 18" fill="none" xmlns="http://www.w3.org/2000/svg">
<path d="M2.8125 6.18801H5.13281C5.25673 6.67199 5.53821 7.10096 5.93286 7.4073C6.32752 7.71364 6.8129 7.87992 7.3125 7.87992C7.8121 7.87992 8.29748 7.71364 8.69214 7.4073C9.08679 7.10096 9.36827 6.67199 9.49219 6.18801H15.1875C15.3367 6.18801 15.4798 6.12874 15.5852 6.02325C15.6907 5.91776 15.75 5.77469 15.75 5.62551C15.75 5.47632 15.6907 5.33325 15.5852 5.22776C15.4798 5.12227 15.3367 5.06301 15.1875 5.06301H9.49219C9.36827 4.57902 9.08679 4.15005 8.69214 3.84371C8.29748 3.53737 7.8121 3.37109 7.3125 3.37109C6.8129 3.37109 6.32752 3.53737 5.93286 3.84371C5.53821 4.15005 5.25673 4.57902 5.13281 5.06301H2.8125C2.66332 5.06301 2.52024 5.12227 2.41475 5.22776C2.30926 5.33325 2.25 5.47632 2.25 5.62551C2.25 5.77469 2.30926 5.91776 2.41475 6.02325C2.52024 6.12874 2.66332 6.18801 2.8125 6.18801ZM7.3125 4.50051C7.535 4.50051 7.75251 4.56649 7.93752 4.6901C8.12252 4.81372 8.26672 4.98942 8.35186 5.19499C8.43701 5.40055 8.45929 5.62675 8.41588 5.84498C8.37248 6.06321 8.26533 6.26367 8.10799 6.421C7.95066 6.57833 7.75021 6.68548 7.53198 6.72889C7.31375 6.7723 7.08755 6.75002 6.88198 6.66487C6.67641 6.57972 6.50071 6.43553 6.3771 6.25052C6.25348 6.06552 6.1875 5.84801 6.1875 5.62551C6.1875 5.32714 6.30603 5.04099 6.517 4.83001C6.72798 4.61903 7.01413 4.50051 7.3125 4.50051ZM15.1875 11.813H13.9922C13.8683 11.329 13.5868 10.9 13.1921 10.5937C12.7975 10.2874 12.3121 10.1211 11.8125 10.1211C11.3129 10.1211 10.8275 10.2874 10.4329 10.5937C10.0382 10.9 9.75673 11.329 9.63281 11.813H2.8125C2.66332 11.813 2.52024 11.8723 2.41475 11.9778C2.30926 12.0832 2.25 12.2263 2.25 12.3755C2.25 12.5247 2.30926 12.6678 2.41475 12.7733C2.52024 12.8787 2.66332 12.938 2.8125 12.938H9.63281C9.75673 13.422 10.0382 13.851 10.4329 14.1573C10.8275 14.4636 11.3129 14.6299 11.8125 14.6299C12.3121 14.6299 12.7975 14.4636 13.1921 14.1573C13.5868 13.851 13.8683 13.422 13.9922 12.938H15.1875C15.3367 12.938 15.4798 12.8787 15.5852 12.7733C15.6907 12.6678 15.75 12.5247 15.75 12.3755C15.75 12.2263 15.6907 12.0832 15.5852 11.9778C15.4798 11.8723 15.3367 11.813 15.1875 11.813ZM11.8125 13.5005C11.59 13.5005 11.3725 13.4345 11.1875 13.3109C11.0025 13.1873 10.8583 13.0116 10.7731 12.806C10.688 12.6005 10.6657 12.3743 10.7091 12.156C10.7525 11.9378 10.8597 11.7373 11.017 11.58C11.1743 11.4227 11.3748 11.3155 11.593 11.2721C11.8113 11.2287 12.0375 11.251 12.243 11.3361C12.4486 11.4213 12.6243 11.5655 12.7479 11.7505C12.8715 11.9355 12.9375 12.153 12.9375 12.3755C12.9375 12.6739 12.819 12.96 12.608 13.171C12.397 13.382 12.1109 13.5005 11.8125 13.5005Z" fill="currentColor"/>
</svg>
