<svg width="24" height="24" viewBox="0 0 24 24" fill="none" xmlns="http://www.w3.org/2000/svg">
<path d="M19.5 3H17.25V2.25C17.25 2.05109 17.171 1.86032 17.0303 1.71967C16.8897 1.57902 16.6989 1.5 16.5 1.5C16.3011 1.5 16.1103 1.57902 15.9697 1.71967C15.829 1.86032 15.75 2.05109 15.75 2.25V3H8.25V2.25C8.25 2.05109 8.17098 1.86032 8.03033 1.71967C7.88968 1.57902 7.69891 1.5 7.5 1.5C7.30109 1.5 7.11032 1.57902 6.96967 1.71967C6.82902 1.86032 6.75 2.05109 6.75 2.25V3H4.5C4.10218 3 3.72064 3.15804 3.43934 3.43934C3.15804 3.72064 3 4.10218 3 4.5V19.5C3 19.8978 3.15804 20.2794 3.43934 20.5607C3.72064 20.842 4.10218 21 4.5 21H19.5C19.8978 21 20.2794 20.842 20.5607 20.5607C20.842 20.2794 21 19.8978 21 19.5V4.5C21 4.10218 20.842 3.72064 20.5607 3.43934C20.2794 3.15804 19.8978 3 19.5 3ZM6.75 6V5.25C6.75 5.05109 6.82902 4.86032 6.96967 4.71967C7.11032 4.57902 7.30109 4.5 7.5 4.5C7.69891 4.5 7.88968 4.57902 8.03033 4.71967C8.17098 4.86032 8.25 5.05109 8.25 5.25V6C8.25 6.19891 8.17098 6.38968 8.03033 6.53033C7.88968 6.67098 7.69891 6.75 7.5 6.75C7.30109 6.75 7.11032 6.67098 6.96967 6.53033C6.82902 6.38968 6.75 6.19891 6.75 6ZM16.7391 11.6906L14.4459 13.5834L15.1453 16.4062C15.1631 16.4779 15.1594 16.5533 15.1345 16.6228C15.1097 16.6924 15.0648 16.753 15.0056 16.7972C14.9407 16.845 14.8622 16.871 14.7816 16.8713C14.7156 16.8708 14.6509 16.8531 14.5941 16.8197L12 15.2981L9.40875 16.8234C9.34482 16.8613 9.27107 16.8794 9.19687 16.8753C9.12267 16.8712 9.05136 16.8451 8.992 16.8004C8.93263 16.7557 8.88788 16.6944 8.86344 16.6242C8.83899 16.554 8.83594 16.4782 8.85469 16.4062L9.55406 13.5797L7.26094 11.6906C7.20305 11.6431 7.16073 11.5793 7.13942 11.5075C7.11812 11.4357 7.11881 11.3591 7.1414 11.2877C7.164 11.2163 7.20746 11.1533 7.2662 11.1068C7.32493 11.0603 7.39624 11.0325 7.47094 11.0269L10.4934 10.7934L11.6559 8.10187C11.685 8.03478 11.7331 7.97766 11.7942 7.93753C11.8553 7.8974 11.9269 7.87603 12 7.87603C12.0731 7.87603 12.1447 7.8974 12.2058 7.93753C12.2669 7.97766 12.315 8.03478 12.3441 8.10187L13.5066 10.7934L16.5291 11.0269C16.6038 11.0325 16.6751 11.0603 16.7338 11.1068C16.7925 11.1533 16.836 11.2163 16.8586 11.2877C16.8812 11.3591 16.8819 11.4357 16.8606 11.5075C16.8393 11.5793 16.7969 11.6431 16.7391 11.6906ZM17.25 6C17.25 6.19891 17.171 6.38968 17.0303 6.53033C16.8897 6.67098 16.6989 6.75 16.5 6.75C16.3011 6.75 16.1103 6.67098 15.9697 6.53033C15.829 6.38968 15.75 6.19891 15.75 6V5.25C15.75 5.05109 15.829 4.86032 15.9697 4.71967C16.1103 4.57902 16.3011 4.5 16.5 4.5C16.6989 4.5 16.8897 4.57902 17.0303 4.71967C17.171 4.86032 17.25 5.05109 17.25 5.25V6Z" fill="#808894"/>
</svg>
