<svg width="56" height="56" viewBox="0 0 56 56" fill="none" xmlns="http://www.w3.org/2000/svg">
<path d="M46.7381 18.0119L34.4881 5.76188C34.3255 5.59942 34.1324 5.47059 33.92 5.38276C33.7075 5.29493 33.4799 5.24982 33.25 5.25H12.25C11.3217 5.25 10.4315 5.61875 9.77513 6.27513C9.11875 6.9315 8.75 7.82174 8.75 8.75V47.25C8.75 48.1783 9.11875 49.0685 9.77513 49.7249C10.4315 50.3812 11.3217 50.75 12.25 50.75H43.75C44.6783 50.75 45.5685 50.3812 46.2249 49.7249C46.8812 49.0685 47.25 48.1783 47.25 47.25V19.25C47.2502 19.0201 47.2051 18.7925 47.1172 18.58C47.0294 18.3676 46.9006 18.1745 46.7381 18.0119ZM33.25 35H29.75V38.5C29.75 38.9641 29.5656 39.4092 29.2374 39.7374C28.9093 40.0656 28.4641 40.25 28 40.25C27.5359 40.25 27.0908 40.0656 26.7626 39.7374C26.4344 39.4092 26.25 38.9641 26.25 38.5V35H22.75C22.2859 35 21.8408 34.8156 21.5126 34.4874C21.1844 34.1593 21 33.7141 21 33.25C21 32.7859 21.1844 32.3407 21.5126 32.0126C21.8408 31.6844 22.2859 31.5 22.75 31.5H26.25V28C26.25 27.5359 26.4344 27.0908 26.7626 26.7626C27.0908 26.4344 27.5359 26.25 28 26.25C28.4641 26.25 28.9093 26.4344 29.2374 26.7626C29.5656 27.0908 29.75 27.5359 29.75 28V31.5H33.25C33.7141 31.5 34.1593 31.6844 34.4874 32.0126C34.8156 32.3407 35 32.7859 35 33.25C35 33.7141 34.8156 34.1593 34.4874 34.4874C34.1593 34.8156 33.7141 35 33.25 35ZM33.25 19.25V9.47406L43.0259 19.25H33.25Z" fill="#A0A6AF"/>
</svg>
