<svg width="24" height="24" viewBox="0 0 24 24" fill="none" xmlns="http://www.w3.org/2000/svg">
<path d="M20.25 6.75H12.2503L9.64969 4.8C9.38967 4.60599 9.07411 4.5008 8.74969 4.5H3.75C3.35218 4.5 2.97064 4.65804 2.68934 4.93934C2.40804 5.22064 2.25 5.60218 2.25 6V18.75C2.25 19.1478 2.40804 19.5294 2.68934 19.8107C2.97064 20.092 3.35218 20.25 3.75 20.25H20.3334C20.709 20.2495 21.069 20.1001 21.3346 19.8346C21.6001 19.569 21.7495 19.209 21.75 18.8334V8.25C21.75 7.85218 21.592 7.47064 21.3107 7.18934C21.0294 6.90804 20.6478 6.75 20.25 6.75ZM20.25 18.75H3.75V6H8.74969L11.55 8.1C11.6798 8.19737 11.8377 8.25 12 8.25H20.25V18.75Z" fill="#4D5561"/>
</svg>
