<svg width="23" height="20" viewBox="0 0 23 20" fill="none" xmlns="http://www.w3.org/2000/svg">
<path d="M21.3377 14.2501H19.8977C20.6709 12.764 21.0481 11.1037 20.993 9.42933C20.9379 7.755 20.4524 6.1231 19.5831 4.69102C18.7139 3.25893 17.4903 2.07497 16.0304 1.25331C14.5705 0.431644 12.9236 0 11.2483 0C9.57307 0 7.92609 0.431644 6.46619 1.25331C5.00629 2.07497 3.78273 3.25893 2.9135 4.69102C2.04426 6.1231 1.55869 7.755 1.50359 9.42933C1.44849 11.1037 1.82574 12.764 2.59894 14.2501H1.16269C0.863232 14.2464 0.574177 14.3598 0.357055 14.5661C0.139933 14.7723 0.011892 15.0552 0.000189093 15.3545C-0.00255154 15.5039 0.0245232 15.6524 0.0798315 15.7913C0.13514 15.9302 0.217572 16.0567 0.322312 16.1633C0.427052 16.27 0.551999 16.3547 0.689852 16.4125C0.827706 16.4703 0.9757 16.5001 1.12519 16.5001H6.75019C6.9491 16.5001 7.13987 16.5791 7.28052 16.7198C7.42117 16.8604 7.50019 17.0512 7.50019 17.2501C7.50019 17.449 7.42117 17.6398 7.28052 17.7804C7.13987 17.9211 6.9491 18.0001 6.75019 18.0001H6.01519C5.84152 17.9998 5.67286 18.0582 5.53667 18.166C5.40048 18.2737 5.30479 18.4244 5.26519 18.5935C5.24183 18.703 5.24325 18.8163 5.26936 18.9251C5.29547 19.0339 5.3456 19.1355 5.41608 19.2224C5.48656 19.3094 5.5756 19.3794 5.67667 19.4275C5.77774 19.4755 5.88828 19.5003 6.00019 19.5001H17.9749C18.1684 19.5025 18.3556 19.4316 18.4991 19.3017C18.6425 19.1719 18.7315 18.9926 18.7483 18.7998C18.7551 18.6972 18.7408 18.5943 18.7061 18.4975C18.6715 18.4007 18.6173 18.312 18.547 18.237C18.4767 18.162 18.3917 18.1023 18.2973 18.0615C18.2029 18.0208 18.1011 17.9999 17.9983 18.0001H12.7502C12.5513 18.0001 12.3605 17.9211 12.2199 17.7804C12.0792 17.6398 12.0002 17.449 12.0002 17.2501C12.0002 17.0512 12.0792 16.8604 12.2199 16.7198C12.3605 16.5791 12.5513 16.5001 12.7502 16.5001H13.4805C13.6658 16.4992 13.8446 16.4321 13.9848 16.3109C14.1249 16.1897 14.217 16.0224 14.2446 15.8392C14.2571 15.7339 14.2473 15.6272 14.2156 15.5261C14.184 15.4249 14.1312 15.3316 14.0609 15.2524C13.9906 15.1731 13.9042 15.1096 13.8076 15.0661C13.7109 15.0226 13.6062 15.0001 13.5002 15.0001H12.0002C10.6005 15.0001 9.13238 14.4582 7.96894 13.5142C6.69863 12.4829 6.00019 11.1451 6.00019 9.75009C6.00003 9.46752 6.02229 9.18539 6.06675 8.90634C6.09498 8.71164 6.19669 8.53514 6.35099 8.41309C6.50529 8.29105 6.70047 8.23272 6.89644 8.25009C6.99772 8.26143 7.09562 8.2933 7.18418 8.34374C7.27273 8.39418 7.35007 8.46214 7.41149 8.54347C7.4729 8.6248 7.5171 8.71779 7.54137 8.81677C7.56565 8.91575 7.5695 9.01864 7.55269 9.11915C7.51801 9.32768 7.50045 9.5387 7.50019 9.75009C7.50019 11.8276 9.96206 13.5001 12.0002 13.5001H13.4477C14.7133 13.5001 15.7783 14.536 15.7493 15.8017C15.7473 15.8904 15.7401 15.979 15.7277 16.067C15.7192 16.1209 15.7226 16.1759 15.7376 16.2284C15.7527 16.2808 15.7789 16.3293 15.8146 16.3706C15.8504 16.4118 15.8946 16.4448 15.9444 16.4671C15.9941 16.4895 16.0481 16.5007 16.1027 16.5001H21.3752C21.5247 16.5001 21.6727 16.4703 21.8105 16.4125C21.9484 16.3547 22.0733 16.27 22.1781 16.1633C22.2828 16.0567 22.3652 15.9302 22.4205 15.7913C22.4759 15.6524 22.5029 15.5039 22.5002 15.3545C22.4885 15.0552 22.3604 14.7723 22.1433 14.5661C21.9262 14.3598 21.6371 14.2464 21.3377 14.2501ZM11.2408 6.52134C11.2135 6.72956 11.1284 6.92598 10.9952 7.08835C10.862 7.25073 10.686 7.37258 10.4872 7.44013C10.2883 7.50767 10.0746 7.5182 9.87002 7.47053C9.66549 7.42286 9.47839 7.31889 9.32989 7.17039C9.18139 7.02189 9.07742 6.83478 9.02975 6.63026C8.98208 6.42573 8.99261 6.21194 9.06015 6.01308C9.1277 5.81423 9.24955 5.63825 9.41192 5.50507C9.5743 5.37188 9.77072 5.2868 9.97894 5.25947C10.15 5.23701 10.3239 5.25419 10.4872 5.30966C10.6505 5.36514 10.7989 5.45743 10.9209 5.5794C11.0429 5.70137 11.1351 5.84975 11.1906 6.01308C11.2461 6.17641 11.2633 6.35031 11.2408 6.52134ZM15.7408 11.0213C15.7135 11.2296 15.6284 11.426 15.4952 11.5884C15.362 11.7507 15.186 11.8726 14.9872 11.9401C14.7883 12.0077 14.5746 12.0182 14.37 11.9705C14.1655 11.9229 13.9784 11.8189 13.8299 11.6704C13.6814 11.5219 13.5774 11.3348 13.5298 11.1303C13.4821 10.9257 13.4926 10.7119 13.5602 10.5131C13.6277 10.3142 13.7495 10.1383 13.9119 10.0051C14.0743 9.87188 14.2707 9.7868 14.4789 9.75947C14.65 9.73701 14.8239 9.75418 14.9872 9.80966C15.1505 9.86513 15.2989 9.95743 15.4209 10.0794C15.5429 10.2014 15.6351 10.3498 15.6906 10.5131C15.7461 10.6764 15.7633 10.8503 15.7408 11.0213Z" fill="#808894"/>
</svg>
