<svg width="20" height="20" viewBox="0 0 20 20" fill="none" xmlns="http://www.w3.org/2000/svg">
<path d="M17.2586 5.85762L13.768 2.36622C13.6519 2.25011 13.5141 2.15801 13.3624 2.09518C13.2107 2.03234 13.0482 2 12.884 2C12.7198 2 12.5572 2.03234 12.4056 2.09518C12.2539 2.15801 12.1161 2.25011 12 2.36622L2.36641 12.0006C2.24983 12.1162 2.15741 12.2539 2.09451 12.4056C2.0316 12.5573 1.99948 12.72 2.00001 12.8842V16.3756C2.00001 16.7071 2.1317 17.0251 2.36612 17.2595C2.60054 17.4939 2.91849 17.6256 3.25001 17.6256H6.74141C6.90563 17.6261 7.0683 17.594 7.21999 17.5311C7.37168 17.4682 7.50935 17.3758 7.62501 17.2592L17.2586 7.62559C17.3747 7.50952 17.4668 7.3717 17.5296 7.22003C17.5925 7.06835 17.6248 6.90578 17.6248 6.74161C17.6248 6.57743 17.5925 6.41486 17.5296 6.26319C17.4668 6.11151 17.3747 5.9737 17.2586 5.85762ZM14.5 8.61622L11.0086 5.12559L12.8836 3.25059L16.375 6.74122L14.5 8.61622Z" fill="#A0A6AF"/>
</svg>
