<svg width="164" height="148" viewBox="0 0 164 148" fill="none" xmlns="http://www.w3.org/2000/svg">
<g clip-path="url(#clip0_1038_7065)">
<path d="M90.9628 91.7875C120.523 91.7875 144.486 72.7627 144.486 49.2944C144.486 25.8261 120.523 6.80127 90.9628 6.80127C61.4029 6.80127 37.4399 25.8261 37.4399 49.2944C37.4399 72.7627 61.4029 91.7875 90.9628 91.7875Z" fill="#FFD252"/>
<path d="M79.3154 7.51866C80.926 7.30493 83.0862 6.99961 85.6432 6.60269C90.7574 5.80886 93.3144 5.41194 96.36 4.74023C102.84 3.32049 106.077 2.60298 106.184 2.57245C106.657 2.40452 108.306 1.81678 110.39 2.06104C111.382 2.17553 112.641 2.34346 113.595 3.36628C114.824 4.67153 114.664 6.42713 114.626 6.80115C114.374 8.9842 112.618 10.1215 112.366 10.2818C113.565 10.8543 114.763 11.4344 115.969 12.0069C103.749 10.5108 91.5359 9.02236 79.3154 7.52629V7.51866Z" fill="#FFD252"/>
<path d="M124.784 122.248C122.204 122.594 120.436 124.358 118.985 125.807C117.17 127.616 116.15 129.489 115.602 130.725L105.959 119.644L99.6443 125.143L109.296 136.23C110.892 138.061 112.48 139.892 114.076 141.723C114.144 141.821 114.249 141.96 114.4 142.1C115.729 143.252 118.461 142.082 119.536 141.62C123.533 139.915 135.003 131.804 132.764 126.126C131.711 123.454 127.841 121.841 124.792 122.254L124.784 122.248Z" fill="#FF9248"/>
<path d="M52.8537 123.528C55.4546 123.564 57.4219 125.1 59.0343 126.362C61.053 127.942 62.289 129.683 62.9916 130.835L71.2346 118.669L78.1687 123.37L69.9257 135.536C68.56 137.547 67.2036 139.553 65.8379 141.565C65.787 141.67 65.7005 141.821 65.5585 141.973C64.3768 143.275 61.5257 142.441 60.403 142.118C56.2316 140.902 43.8682 134.24 45.4093 128.331C46.1301 125.553 49.7808 123.488 52.8537 123.528Z" fill="#FF9248"/>
<path d="M90.9631 132.586C109.676 132.586 124.846 118.725 124.846 101.626C124.846 84.5278 109.676 70.6667 90.9631 70.6667C72.25 70.6667 57.0801 84.5278 57.0801 101.626C57.0801 118.725 72.25 132.586 90.9631 132.586Z" fill="#FFD252"/>
<path d="M64.225 26.2273C53.6991 26.2273 45.1577 34.6771 45.1577 45.0962C45.1577 55.5153 53.6915 63.965 64.225 63.965C74.7586 63.965 83.2924 55.5153 83.2924 45.0962C83.2924 34.6771 74.7586 26.2273 64.225 26.2273ZM64.225 60.5149C55.615 60.5149 48.6384 53.607 48.6384 45.0885C48.6384 36.5701 55.615 29.6622 64.225 29.6622C72.8351 29.6622 79.8117 36.5701 79.8117 45.0885C79.8117 53.607 72.8351 60.5149 64.225 60.5149Z" fill="#EF6135"/>
<path d="M111.351 26.2273C100.825 26.2273 92.2832 34.6771 92.2832 45.0962C92.2832 55.5153 100.817 63.965 111.351 63.965C121.884 63.965 130.418 55.5153 130.418 45.0962C130.418 34.6771 121.884 26.2273 111.351 26.2273ZM111.351 60.5149C102.74 60.5149 95.7639 53.607 95.7639 45.0885C95.7639 36.5701 102.74 29.6622 111.351 29.6622C119.961 29.6622 126.937 36.5701 126.937 45.0885C126.937 53.607 119.961 60.5149 111.351 60.5149Z" fill="#EF6135"/>
<path d="M93.0699 46.9893C91.9326 46.6458 90.1465 46.226 87.91 46.226C85.6583 46.226 83.8569 46.6458 82.7119 46.9893V43.1957C83.8492 42.8522 85.6354 42.4324 87.8566 42.4324C90.116 42.4324 91.9174 42.8522 93.0623 43.1957V46.9893H93.0699Z" fill="#EF6135"/>
<path d="M67.9573 41.9439L70.6594 43.066C72.1249 43.6766 72.1249 45.7528 70.6594 46.3635L67.9573 47.4855C67.5222 47.6687 67.1711 48.0122 66.9955 48.4473L65.8735 51.1494C65.2628 52.6149 63.1866 52.6149 62.576 51.1494L61.4539 48.4473C61.2707 48.0122 60.9273 47.6611 60.4922 47.4855L57.7901 46.3635C56.3245 45.7528 56.3245 43.6766 57.7901 43.066L60.4922 41.9439C60.9273 41.7607 61.2784 41.4172 61.4539 40.9822L62.576 38.2801C63.1866 36.8145 65.2628 36.8145 65.8735 38.2801L66.9955 40.9822C67.1787 41.4172 67.5222 41.7684 67.9573 41.9439Z" fill="#3C2106"/>
<path d="M115.29 41.9439L117.992 43.066C119.457 43.6766 119.457 45.7528 117.992 46.3635L115.29 47.4855C114.855 47.6687 114.504 48.0122 114.328 48.4473L113.206 51.1494C112.595 52.6149 110.519 52.6149 109.908 51.1494L108.786 48.4473C108.603 48.0122 108.26 47.6611 107.825 47.4855L105.123 46.3635C103.657 45.7528 103.657 43.6766 105.123 43.066L107.825 41.9439C108.26 41.7607 108.611 41.4172 108.786 40.9822L109.908 38.2801C110.519 36.8145 112.595 36.8145 113.206 38.2801L114.328 40.9822C114.511 41.4172 114.855 41.7684 115.29 41.9439Z" fill="#3C2106"/>
<path d="M87.8864 73.5751C91.8743 73.5751 95.1072 69.4571 95.1072 64.3773C95.1072 59.2974 91.8743 55.1794 87.8864 55.1794C83.8984 55.1794 80.6655 59.2974 80.6655 64.3773C80.6655 69.4571 83.8984 73.5751 87.8864 73.5751Z" fill="#FF9124"/>
<path d="M87.8868 66.3541C90.0536 66.3541 91.8101 65.4689 91.8101 64.3771C91.8101 63.2853 90.0536 62.4001 87.8868 62.4001C85.7199 62.4001 83.9634 63.2853 83.9634 64.3771C83.9634 65.4689 85.7199 66.3541 87.8868 66.3541Z" fill="#B5631A"/>
<path d="M111.282 85.3455C120.045 85.3455 126.068 83.277 129.953 81.3763C134.128 79.3383 137.181 76.8347 139.914 78.1018C143.166 79.6131 143.395 85.2539 143.418 85.8875C143.608 90.6657 141.074 94.2151 139.288 96.6958C135.922 101.383 131.991 103.779 125.999 107.336C121.9 109.779 118.137 111.573 115.038 112.886C115.038 112.886 98.1613 84.3303 111.29 85.3379L111.282 85.3455Z" fill="#FFD252"/>
<path d="M134.525 85.9103C135.464 85.7881 136.746 85.521 138.158 84.8874C139.99 84.0631 141.265 82.9792 142.021 82.2083" stroke="#EAB847" stroke-width="1.52661" stroke-miterlimit="10" stroke-linecap="round"/>
<path d="M137.517 92.2686C138.341 91.8717 139.502 91.1923 140.647 90.0703C141.547 89.1848 142.15 88.2994 142.555 87.5972" stroke="#EAB847" stroke-width="1.52661" stroke-miterlimit="10" stroke-linecap="round"/>
<path d="M69.5828 85.3455C60.82 85.3455 54.7976 83.277 50.9124 81.3763C46.7371 79.3383 43.6839 76.8347 40.9512 78.1018C37.6996 79.6131 37.4706 85.2539 37.4477 85.8875C37.2569 90.6657 39.791 94.2151 41.5771 96.6958C44.9433 101.383 48.8743 103.779 54.8663 107.336C58.9652 109.779 62.7283 111.573 65.8273 112.886C65.8273 112.886 82.7039 84.3303 69.5751 85.3379L69.5828 85.3455Z" fill="#FFD252"/>
<path d="M46.3321 85.9103C45.3932 85.7881 44.1109 85.521 42.6987 84.8874C40.8668 84.0631 39.5921 82.9792 38.8364 82.2083" stroke="#EAB847" stroke-width="1.52661" stroke-miterlimit="10" stroke-linecap="round"/>
<path d="M43.3405 92.2686C42.5162 91.8717 41.3559 91.1923 40.211 90.0703C39.3103 89.1848 38.7073 88.2994 38.3027 87.5972" stroke="#EAB847" stroke-width="1.52661" stroke-miterlimit="10" stroke-linecap="round"/>
<path d="M3.90084 42.7835L5.9465 35.9978C6.08389 35.5474 6.22129 35.0818 6.32052 34.6009C6.34341 34.4482 6.41974 34.12 6.28998 34.0132C6.16785 33.8834 5.96176 33.8681 5.79384 33.7918C5.61064 33.7155 5.40455 33.7002 5.22136 33.6162L4.22143 33.3109C3.74818 33.1888 3.2444 32.9903 2.77115 32.8758C2.5498 32.83 2.3666 32.7537 2.15288 32.685C1.83229 32.5858 1.47354 32.4789 1.25218 32.2041C0.931592 31.8072 0.962125 31.3034 1.09952 30.8531C1.16058 30.5707 1.31324 30.3111 1.5117 30.0898C1.61857 29.96 1.74833 29.8608 1.90099 29.8074C2.09181 29.7005 2.45057 29.6929 2.65666 29.7081C3.29783 29.7387 3.97717 29.9677 4.59545 30.1508L8.30511 31.2729C8.65622 31.4256 9.09131 31.6011 9.389 31.8377C9.57982 31.9904 9.78591 32.2118 9.85461 32.4408C9.99201 32.9216 9.86988 33.3033 9.77065 33.7918C9.59509 34.6009 9.33556 35.3795 9.09894 36.1733L6.98459 43.1728C6.96932 43.2339 6.47318 45.02 6.16022 45.9054C5.9465 46.4703 5.60301 47.1343 4.77101 47.1878C4.48095 47.2183 4.2138 47.1878 4.00007 47.1191C3.63369 47.0122 3.25204 46.7298 3.20624 46.3634C3.12227 45.8749 3.15281 45.3024 3.32073 44.7452L3.60315 43.8063C3.68712 43.4552 3.78635 43.1194 3.89321 42.7759L3.90084 42.7835ZM15.9381 40.0662C16.0908 40.112 16.2435 40.2036 16.4114 40.2799C16.9304 40.5547 17.2281 41.0356 17.0526 41.6386C16.9304 42.0431 16.732 42.6309 16.2816 42.7988C16.0755 42.8751 15.8694 42.9285 15.6405 42.9056C15.1748 42.837 14.4268 42.5393 13.9688 42.4248C13.9307 42.4095 13.8772 42.4248 13.8543 42.5087C13.6177 43.2033 13.2589 44.4704 13.0452 45.1956C12.8468 45.9283 12.6254 46.6764 12.3888 47.371L12.2972 47.6687C12.0758 48.4167 11.74 49.5006 11.0759 49.8593C10.8469 49.9967 10.5798 50.0349 10.305 49.9509C10.305 49.9509 10.2897 49.9204 10.2668 49.9204C8.89285 49.4624 9.24397 47.7526 9.51876 46.8519L13.3429 34.1811C13.3582 34.1353 13.6559 33.0667 14.2665 32.7384C14.5184 32.601 14.9993 32.6316 15.3199 32.7308C15.6405 32.83 15.8771 33.0361 16.0145 33.288C16.274 33.8071 16.1595 34.2651 16.0603 34.7459C16.0603 34.8375 16.0297 34.9215 16.0068 35.0055C15.9305 35.494 15.7702 36.0283 15.6328 36.5473C15.4954 36.9977 15.5641 36.8527 14.8771 39.1349C14.8314 39.2876 14.7779 39.4555 14.7321 39.6234C15.129 39.7685 15.5718 39.9211 15.9534 40.0585L15.9381 40.0662Z" fill="#774025"/>
<path d="M16.7459 64.259C16.8299 64.5872 16.8757 64.9078 16.9749 65.2131C17.0131 65.3658 17.0665 65.5566 17.2115 65.6329C17.3795 65.7169 17.6008 65.6406 17.7764 65.6024C18.0359 65.5337 18.3183 65.4803 18.5779 65.4192C19.1656 65.2665 20.3182 64.9536 20.9059 64.8773C21.3181 64.8315 21.7837 64.7628 22.1807 64.9002C22.3867 64.9765 22.5241 65.1597 22.5928 65.3658C22.6386 65.465 22.6615 65.5719 22.6921 65.6864C22.7379 65.9535 22.715 66.213 22.5928 66.4497C22.4707 66.6863 22.2722 66.8466 22.0433 66.9611C21.7303 67.0985 21.4479 67.2206 21.1197 67.3046C20.9136 67.358 19.9365 67.587 19.7533 67.6328L18.158 68.0373C17.7077 68.1518 17.2573 68.1976 16.807 68.2892C16.4559 68.3579 16.0284 68.3579 15.7078 68.1824C15.4025 67.9992 15.2041 67.7244 15.0514 67.4114C14.7232 66.7016 14.5858 65.8925 14.395 65.1292L13.3111 60.8928C13.2118 60.4959 13.1202 60.0761 12.9981 59.6639C12.9828 59.5952 12.5783 58.1678 12.418 57.3969C12.334 56.9236 12.3111 56.3206 12.8378 55.9237C13.0744 55.771 13.334 55.6337 13.6317 55.626C13.9217 55.626 14.227 55.7329 14.4255 55.9924C14.6468 56.2901 14.7919 56.6336 14.8911 57.0152C14.9598 57.2748 15.0209 57.519 15.1048 57.7709L16.7536 64.2437L16.7459 64.259ZM24.9896 58.0075C25.0965 57.9846 25.2033 57.9923 25.3255 57.9617C25.4552 57.9465 25.5926 57.9312 25.7376 57.9159C26.0124 57.9007 26.3101 57.9312 26.501 58.1602C26.6231 58.2747 26.6994 58.4197 26.7376 58.58C26.7834 58.7556 26.8215 58.9082 26.8139 59.0991C26.8215 59.2822 26.8368 59.5341 26.707 59.6944C26.5925 59.8318 26.4628 59.9616 26.2949 60.0379C25.9437 60.1829 25.3102 60.2898 24.9514 60.3967C24.9209 60.4043 24.9056 60.4272 24.9056 60.4272C24.9056 60.4272 24.8904 60.4272 24.9056 60.5035C25.0354 61.076 25.3178 62.1141 25.4705 62.7018C25.6384 63.282 25.7911 63.8926 25.9208 64.4651L25.9819 64.7093C26.1346 65.3123 26.3636 66.1978 26.0506 66.7168C25.9514 66.9076 25.7834 67.045 25.5621 67.0985C25.5621 67.0985 25.5392 67.0832 25.5239 67.0908C24.3866 67.3427 23.921 66.0222 23.7378 65.2971L21.112 55.023C21.112 55.023 20.8678 54.1299 21.1502 53.6491C21.2647 53.4506 21.6082 53.275 21.8677 53.2063C22.1272 53.1376 22.3791 53.1835 22.5776 53.3056C22.9745 53.5575 23.0814 53.9162 23.2111 54.2826C23.2493 54.3437 23.2645 54.42 23.2798 54.4887C23.4325 54.8551 23.5393 55.2902 23.6615 55.7024C23.7302 55.9619 23.7989 56.1832 23.8676 56.4428C23.8828 56.5878 23.9363 56.7023 23.9668 56.8244L24.211 57.7785C24.2416 57.9007 24.2797 58.0381 24.3408 58.1526C24.3408 58.1678 24.6919 58.0839 24.7072 58.0762C24.7988 58.0762 24.8751 58.0762 24.9514 58.0304H24.982L24.9896 58.0075Z" fill="#774025" stroke="#774025" stroke-width="0.37907"/>
<path d="M156.207 75.2844C155.932 76.0096 155.023 76.063 154.436 75.8035C153.985 75.5898 151.863 74.483 150.833 73.9563L150.703 73.8876C150.238 73.6281 149.68 73.3456 149.276 72.9563C148.993 72.6892 148.81 72.216 148.841 71.7732C148.871 71.2084 149.421 70.2466 149.451 70.2008L152.917 63.4532C152.955 63.3311 153.428 62.148 154.016 61.7892C154.512 61.4839 155.733 62.0869 155.84 62.1403L159.557 64.0486C159.619 64.0791 160.977 64.7203 160.847 65.4912C160.802 65.7737 160.496 66.3309 160.313 66.4606C160.161 66.5599 159.97 66.5828 159.771 66.5446C159.557 66.4912 159.237 66.369 158.825 66.1553C158.558 66.0179 158.359 65.8958 156.405 64.8959C156.123 64.7508 155.749 64.5753 155.573 64.5677C155.207 64.5371 154.863 65.247 154.772 65.4989V65.5141L152.008 71.0405C151.795 71.4526 151.802 71.8343 152.291 72.0938C152.39 72.1702 153.978 73.1014 155.375 73.8189C155.993 74.1395 156.497 74.5746 156.222 75.2997L156.207 75.2844ZM163.412 71.5977C163.756 71.8725 163.954 72.2999 163.717 72.7579C163.634 72.9182 163.565 73.0632 163.435 73.193C163.191 73.5136 162.847 73.712 162.45 73.5136L161.138 72.8571C160.542 73.941 159.71 75.6355 159.031 76.9561C158.748 77.5133 158.122 78.6811 157.153 78.2613C156.084 77.7957 156.527 76.7347 156.871 76.0706L161.878 66.3156C161.878 66.3156 162.282 65.4836 162.817 65.3081C163.031 65.2394 163.405 65.331 163.649 65.4531C163.885 65.5752 164.046 65.7737 164.114 65.995C164.244 66.4454 164.092 66.7889 163.939 67.1476C163.435 68.3536 162.824 69.6283 162.206 70.8344L163.405 71.59L163.412 71.5977Z" fill="#774025"/>
</g>
<defs>
<clipPath id="clip0_1038_7065">
<rect width="164" height="148" fill="white"/>
</clipPath>
</defs>
</svg>
