<svg width="24" height="24" viewBox="0 0 24 24" fill="none" xmlns="http://www.w3.org/2000/svg">
<path d="M9 21H15M18 9.75V11.25C18 14.55 15.3 17.25 12 17.25M12 17.25C8.7 17.25 6 14.55 6 11.25V9.75M12 17.25V21" stroke="currentColor" stroke-width="1.47692" stroke-linecap="round" stroke-linejoin="round"/>
<path d="M12 3.00004C11.6055 2.99805 11.2145 3.07429 10.8496 3.22435C10.4848 3.37441 10.1533 3.59531 9.87429 3.87429C9.59531 4.15326 9.37441 4.48477 9.22435 4.84964C9.07429 5.21451 8.99805 5.60552 9.00004 6.00004V11.2032C9.00004 12.8532 10.3594 14.25 12 14.25C13.6407 14.25 15 12.8907 15 11.2032V6.00004C15 4.31254 13.6875 3.00004 12 3.00004Z" fill="currentColor" stroke="currentColor" stroke-width="1.28571" stroke-linecap="round" stroke-linejoin="round"/>
</svg>
