<svg width="30" height="30" viewBox="0 0 30 30" fill="none" xmlns="http://www.w3.org/2000/svg">
<path d="M14.9391 3C9.44969 3 5 7.51277 5 13.08V25.8552C5 25.8947 5 25.936 5.00556 25.9736C5.10564 27.1352 6.69388 27.3851 7.19982 26.3382L9.6276 21.6431L9.58868 21.5717C9.60721 21.583 9.62575 21.5943 9.64428 21.6074L11.4735 17.7224C12.7837 14.9407 12.1277 11.8526 9.38482 10.5219L9.79254 9.65733C12.5354 10.9862 15.8231 9.80769 17.1333 7.02597L17.9858 7.43947C16.6756 10.2212 17.8376 13.5555 20.5804 14.8843L20.1727 15.7489C17.4298 14.4201 14.6481 15.8429 13.3378 18.6265L11.4957 22.5359C12.5687 22.9382 13.727 23.1599 14.9372 23.1599C20.4266 23.1599 24.8763 18.6472 24.8763 13.08C24.8763 7.51277 20.4284 3 14.9391 3Z" fill="#272A31"/>
</svg>
